<svg xmlns="http://www.w3.org/2000/svg" version="1.1" xmlns:xlink="http://www.w3.org/1999/xlink" xmlns:svgjs="http://svgjs.dev/svgjs" width="1500" height="242" viewBox="0 0 1500 242"><g transform="matrix(1,0,0,1,-0.9090909090909918,-0.7514266164104981)"><svg viewBox="0 0 396 64" data-background-color="#ffffff" preserveAspectRatio="xMidYMid meet" height="242" width="1500" xmlns="http://www.w3.org/2000/svg" xmlns:xlink="http://www.w3.org/1999/xlink"><g id="tight-bounds" transform="matrix(1,0,0,1,0.2400000000000091,0.19872439442261225)"><svg viewBox="0 0 395.52 63.6025512111548" height="63.6025512111548" width="395.52"><g><svg viewBox="0 0 487.2597360116116 78.35498157567834" height="63.6025512111548" width="395.52"><g transform="matrix(1,0,0,1,91.73973601161165,10.82908934946061)"><svg viewBox="0 0 395.52 56.69680287675712" height="56.69680287675712" width="395.52"><g id="textblocktransform"><svg viewBox="0 0 395.52 56.69680287675712" height="56.69680287675712" width="395.52" id="textblock"><g><svg viewBox="0 0 395.52 56.69680287675712" height="56.69680287675712" width="395.52"><g transform="matrix(1,0,0,1,0,0)"><svg width="395.52" viewBox="1.4 -35.7 305.87 43.85" height="56.69680287675712" data-palette-color="#202046"><path d="M15.2 0L11.5 0 11.5-29.7 1.4-29.7 1.4-32.85 25.25-32.85 25.25-29.7 15.2-29.7 15.2 0ZM34.5 0L30.9 0 30.9-35.7 34.5-35.7 34.5-25.8 34.4-20.7Q36.15-22.45 38.1-23.65 40.05-24.85 42.5-24.85L42.5-24.85Q46.35-24.85 48.12-22.45 49.9-20.05 49.9-15.4L49.9-15.4 49.9 0 46.25 0 46.25-14.95Q46.25-18.45 45.12-20.05 44-21.65 41.45-21.65L41.45-21.65Q39.5-21.65 37.97-20.68 36.45-19.7 34.5-17.75L34.5-17.75 34.5 0ZM67.5 0.6L67.5 0.6Q64.3 0.6 61.7-0.93 59.1-2.45 57.55-5.28 56-8.1 56-12.1L56-12.1Q56-16 57.55-18.88 59.1-21.75 61.57-23.3 64.05-24.85 66.84-24.85L66.84-24.85Q69.84-24.85 72-23.45 74.15-22.05 75.27-19.53 76.4-17 76.4-13.5L76.4-13.5Q76.4-12.95 76.34-12.35 76.3-11.75 76.2-11.3L76.2-11.3 58.85-11.3 58.8-13.95 73.15-13.95Q73.15-17.85 71.5-19.88 69.84-21.9 66.9-21.9L66.9-21.9Q65.09-21.9 63.4-20.88 61.7-19.85 60.6-17.68 59.5-15.5 59.5-12.1L59.5-12.1Q59.5-8.85 60.65-6.7 61.8-4.55 63.72-3.45 65.65-2.35 67.95-2.35L67.95-2.35Q69.75-2.35 71.25-2.9 72.75-3.45 74.09-4.3L74.09-4.3 75.45-1.9Q73.9-0.9 71.97-0.15 70.05 0.6 67.5 0.6ZM95.04 0.6L95.04 0.6Q90.94 0.6 87.74-1.43 84.54-3.45 82.69-7.28 80.84-11.1 80.84-16.4L80.84-16.4Q80.84-20.4 81.92-23.53 82.99-26.65 84.94-28.9 86.89-31.15 89.54-32.3 92.19-33.45 95.29-33.45L95.29-33.45Q98.29-33.45 100.57-32.23 102.84-31 104.19-29.45L104.19-29.45 102.14-27Q100.84-28.45 99.17-29.33 97.49-30.2 95.34-30.2L95.34-30.2Q92.14-30.2 89.74-28.53 87.34-26.85 86.02-23.78 84.69-20.7 84.69-16.5L84.69-16.5Q84.69-12.25 85.97-9.15 87.24-6.05 89.62-4.35 91.99-2.65 95.19-2.65L95.19-2.65Q97.59-2.65 99.49-3.65 101.39-4.65 102.99-6.45L102.99-6.45 105.04-4.15Q103.14-1.9 100.69-0.65 98.24 0.6 95.04 0.6ZM120.19 0.6L120.19 0.6Q117.24 0.6 114.69-0.9 112.14-2.4 110.59-5.23 109.04-8.05 109.04-12.1L109.04-12.1Q109.04-16.1 110.59-18.98 112.14-21.85 114.69-23.35 117.24-24.85 120.19-24.85L120.19-24.85Q123.14-24.85 125.67-23.35 128.19-21.85 129.77-18.98 131.34-16.1 131.34-12.1L131.34-12.1Q131.34-8.05 129.77-5.23 128.19-2.4 125.67-0.9 123.14 0.6 120.19 0.6ZM120.19-2.45L120.19-2.45Q122.39-2.45 124.07-3.65 125.74-4.85 126.67-7.03 127.59-9.2 127.59-12.1L127.59-12.1Q127.59-14.95 126.67-17.15 125.74-19.35 124.07-20.58 122.39-21.8 120.19-21.8L120.19-21.8Q118.04-21.8 116.37-20.58 114.69-19.35 113.77-17.15 112.84-14.95 112.84-12.1L112.84-12.1Q112.84-9.2 113.77-7.03 114.69-4.85 116.37-3.65 118.04-2.45 120.19-2.45ZM146.09 0.6L146.09 0.6Q141.59 0.6 138.86-2.73 136.14-6.05 136.14-12.1L136.14-12.1Q136.14-16 137.61-18.85 139.09-21.7 141.49-23.28 143.89-24.85 146.69-24.85L146.69-24.85Q148.84-24.85 150.41-24.1 151.99-23.35 153.59-22L153.59-22 153.44-26.2 153.44-35.7 157.04-35.7 157.04 0 154.04 0 153.74-2.95 153.59-2.95Q152.19-1.5 150.26-0.45 148.34 0.6 146.09 0.6ZM146.89-2.5L146.89-2.5Q148.64-2.5 150.24-3.38 151.84-4.25 153.44-5.95L153.44-5.95 153.44-19.1Q151.79-20.55 150.31-21.15 148.84-21.75 147.24-21.75L147.24-21.75Q145.19-21.75 143.51-20.53 141.84-19.3 140.86-17.13 139.89-14.95 139.89-12.1L139.89-12.1Q139.89-7.65 141.71-5.08 143.54-2.5 146.89-2.5ZM175.13 0.6L175.13 0.6Q171.94 0.6 169.34-0.93 166.73-2.45 165.19-5.28 163.63-8.1 163.63-12.1L163.63-12.1Q163.63-16 165.19-18.88 166.73-21.75 169.21-23.3 171.69-24.85 174.48-24.85L174.48-24.85Q177.48-24.85 179.63-23.45 181.78-22.05 182.91-19.53 184.03-17 184.03-13.5L184.03-13.5Q184.03-12.95 183.99-12.35 183.94-11.75 183.84-11.3L183.84-11.3 166.48-11.3 166.44-13.95 180.78-13.95Q180.78-17.85 179.13-19.88 177.48-21.9 174.53-21.9L174.53-21.9Q172.73-21.9 171.03-20.88 169.34-19.85 168.23-17.68 167.13-15.5 167.13-12.1L167.13-12.1Q167.13-8.85 168.28-6.7 169.44-4.55 171.36-3.45 173.28-2.35 175.59-2.35L175.59-2.35Q177.38-2.35 178.88-2.9 180.38-3.45 181.74-4.3L181.74-4.3 183.09-1.9Q181.53-0.9 179.61-0.15 177.69 0.6 175.13 0.6ZM202.43 0.6L202.43 0.6Q198.33 0.6 195.21-1.5 192.08-3.6 190.28-7.45 188.48-11.3 188.48-16.55L188.48-16.55Q188.48-21.8 190.28-25.6 192.08-29.4 195.21-31.43 198.33-33.45 202.43-33.45L202.43-33.45Q206.48-33.45 209.63-31.43 212.78-29.4 214.56-25.6 216.33-21.8 216.33-16.55L216.33-16.55Q216.33-11.3 214.56-7.45 212.78-3.6 209.63-1.5 206.48 0.6 202.43 0.6ZM212.38 8.15L212.38 8.15Q207.73 8.15 204.68 5.78 201.63 3.4 200.33-0.1L200.33-0.1 204.23-0.35Q204.88 1.4 206.13 2.6 207.38 3.8 209.06 4.4 210.73 5 212.73 5L212.73 5Q213.83 5 214.66 4.85 215.48 4.7 216.13 4.5L216.13 4.5 216.88 7.45Q216.18 7.7 214.98 7.93 213.78 8.15 212.38 8.15ZM202.43-2.5L202.43-2.5Q205.43-2.5 207.71-4.23 209.98-5.95 211.23-9.1 212.48-12.25 212.48-16.55L212.48-16.55Q212.48-20.75 211.23-23.8 209.98-26.85 207.71-28.53 205.43-30.2 202.43-30.2L202.43-30.2Q199.38-30.2 197.11-28.53 194.83-26.85 193.58-23.8 192.33-20.75 192.33-16.55L192.33-16.55Q192.33-12.25 193.58-9.1 194.83-5.95 197.11-4.23 199.38-2.5 202.43-2.5ZM230.18 0.6L230.18 0.6Q226.43 0.6 224.63-1.8 222.83-4.2 222.83-8.85L222.83-8.85 222.83-24.25 226.43-24.25 226.43-9.3Q226.43-5.8 227.58-4.17 228.73-2.55 231.28-2.55L231.28-2.55Q233.18-2.55 234.73-3.58 236.28-4.6 238.08-6.85L238.08-6.85 238.08-24.25 241.73-24.25 241.73 0 238.68 0 238.38-3.85 238.23-3.85Q236.53-1.85 234.63-0.63 232.73 0.6 230.18 0.6ZM259.78 0.6L259.78 0.6Q256.58 0.6 253.98-0.93 251.38-2.45 249.83-5.28 248.28-8.1 248.28-12.1L248.28-12.1Q248.28-16 249.83-18.88 251.38-21.75 253.85-23.3 256.33-24.85 259.13-24.85L259.13-24.85Q262.13-24.85 264.28-23.45 266.43-22.05 267.55-19.53 268.68-17 268.68-13.5L268.68-13.5Q268.68-12.95 268.63-12.35 268.58-11.75 268.48-11.3L268.48-11.3 251.13-11.3 251.08-13.95 265.43-13.95Q265.43-17.85 263.78-19.88 262.13-21.9 259.18-21.9L259.18-21.9Q257.38-21.9 255.68-20.88 253.98-19.85 252.88-17.68 251.78-15.5 251.78-12.1L251.78-12.1Q251.78-8.85 252.93-6.7 254.08-4.55 256-3.45 257.93-2.35 260.23-2.35L260.23-2.35Q262.03-2.35 263.53-2.9 265.03-3.45 266.38-4.3L266.38-4.3 267.73-1.9Q266.18-0.9 264.25-0.15 262.33 0.6 259.78 0.6ZM280.98 0.6L280.98 0.6Q278.38 0.6 276.03-0.38 273.68-1.35 271.98-2.75L271.98-2.75 273.83-5.2Q275.38-3.95 277.1-3.1 278.83-2.25 281.13-2.25L281.13-2.25Q283.63-2.25 284.88-3.45 286.13-4.65 286.13-6.3L286.13-6.3Q286.13-7.6 285.28-8.47 284.43-9.35 283.15-9.98 281.88-10.6 280.48-11.1L280.48-11.1Q278.78-11.7 277.08-12.55 275.38-13.4 274.25-14.7 273.13-16 273.13-18.05L273.13-18.05Q273.13-20.9 275.3-22.88 277.48-24.85 281.38-24.85L281.38-24.85Q283.58-24.85 285.48-24.05 287.38-23.25 288.73-22.15L288.73-22.15 286.98-19.8Q285.73-20.7 284.4-21.33 283.08-21.95 281.38-21.95L281.38-21.95Q278.98-21.95 277.83-20.83 276.68-19.7 276.68-18.25L276.68-18.25Q276.68-17.05 277.45-16.28 278.23-15.5 279.48-14.95 280.73-14.4 282.13-13.85L282.13-13.85Q283.93-13.2 285.65-12.38 287.38-11.55 288.53-10.2 289.68-8.85 289.68-6.5L289.68-6.5Q289.68-4.6 288.68-2.98 287.68-1.35 285.73-0.38 283.78 0.6 280.98 0.6ZM302.92 0.6L302.92 0.6Q299.12 0.6 297.67-1.6 296.22-3.8 296.22-7.3L296.22-7.3 296.22-21.25 292.57-21.25 292.57-24 296.37-24.25 296.82-31.1 299.87-31.1 299.87-24.25 306.52-24.25 306.52-21.25 299.87-21.25 299.87-7.2Q299.87-4.95 300.7-3.68 301.52-2.4 303.72-2.4L303.72-2.4Q304.37-2.4 305.15-2.6 305.92-2.8 306.52-3.05L306.52-3.05 307.27-0.3Q306.27 0.05 305.1 0.33 303.92 0.6 302.92 0.6Z" opacity="1" transform="matrix(1,0,0,1,0,0)" fill="#202046" class="wordmark-text-0" data-fill-palette-color="primary" id="text-0"></path></svg></g></svg></g></svg></g></svg></g><g><svg viewBox="0 0 78.35498157567834 78.35498157567834" height="78.35498157567834" width="78.35498157567834"><g><svg xmlns="http://www.w3.org/2000/svg" xmlns:xlink="http://www.w3.org/1999/xlink" version="1.1" x="0" y="0" viewBox="2 2 20 20" enable-background="new 0 0 24 24" xml:space="preserve" height="78.35498157567834" width="78.35498157567834" class="icon-icon-0" data-fill-palette-color="accent" id="icon-0"><g fill="#a52809" data-fill-palette-color="accent"><g fill="#a52809" data-fill-palette-color="accent"><polygon fill="#a52809" points="22,10 22,2 2,2 2,22 22,22 22,14 20,14 20,20 4,20 4,4 11,4 11,6 6,6 6,10 8,10 8,8 16,8 16,16     8,16 8,14 6,14 6,18 18,18 18,6 13,6 13,4 20,4 20,10   " data-fill-palette-color="accent"></polygon></g><g fill="#a52809" data-fill-palette-color="accent"><rect x="10" y="10" fill="#a52809" width="4" height="4" data-fill-palette-color="accent"></rect></g></g></svg></g></svg></g></svg></g><defs></defs></svg><rect width="395.52" height="63.6025512111548" fill="none" stroke="none" visibility="hidden"></rect></g></svg></g></svg>